<svg id="f01d3671-1b06-4a62-a5dc-2e0cd90126c4" data-name="Layer 1" xmlns="http://www.w3.org/2000/svg" viewBox="0 0 59.58 72.72"><defs><style>.a7dc9251-39ae-436b-ae06-d78356606414{fill:#d7d7d7;}</style></defs><path class="a7dc9251-39ae-436b-ae06-d78356606414" d="M74.11,54.83c-1.83,2.38-5.76,12-7,12.7s-7,2-7,2l-.13,18.55H40.36l.13-18.55s-5.51-.61-7.05-1.8c-.75-.59-.91-8.7-1-17.08,0,0-.79-17.88,0-19.55s5.73-.89,6.06,0,0,19.55,0,19.55h3.28s-.78-17.88,0-19.55,5.73-.89,6.07,0,0,19.55,0,19.55h3.28s-.79-17.88,0-19.55,5.72-.89,6.06,0,0,19.55,0,19.55h3.28s-.78-17.88,0-19.55,5.73-.89,6.07,0,0,19.55,0,19.55l-.36,6.9s1.4-5.8,1.89-6.9c0,0,1.62-4.4,3.94-3.57C73.39,47.55,76.57,51.64,74.11,54.83Z" transform="translate(-20.21 -15.34)"/><path class="a7dc9251-39ae-436b-ae06-d78356606414" d="M47.93,32.08H41.58c-.17,1.58-.18,4.64-.13,7.83H48C48,36.7,48,33.62,47.93,32.08Z" transform="translate(-20.21 -15.34)"/><path class="a7dc9251-39ae-436b-ae06-d78356606414" d="M32.59,59.38c.08,2.66.19,4.91.37,6.41H40.1v-.24H68.48c.33-.61.7-1.33,1.08-2.1H40.1v-2H70.54a53.41,53.41,0,0,1,3.57-6.64c2.46-3.19-.72-7.28-2.11-7.77a1.53,1.53,0,0,0-.58-.11c-2,0-3.36,3.68-3.36,3.68-.49,1.1-1.89,6.9-1.89,6.9l.36-6.9s.07-4.22.12-8.74H63.09v-2h3.57c0-1,0-2,0-2.93H63.09V35h3.58c0-1.21,0-2.23,0-2.93H63.09v-2h0c-1.17,0-2.27.27-2.61,1-.78,1.67,0,19.55,0,19.55H59.8V51H32.43l0,2.21H59.8v2H32.49c0,.76,0,1.5,0,2.22H59.8v2Z" transform="translate(-20.21 -15.34)"/><path class="a7dc9251-39ae-436b-ae06-d78356606414" d="M47.92,44.82c0-.94,0-1.93,0-2.93H41.49c0,1,0,2,.07,2.93Z" transform="translate(-20.21 -15.34)"/><path class="a7dc9251-39ae-436b-ae06-d78356606414" d="M47.9,46.79H41.63c0,.85,0,1.61.08,2.22h6.15C47.87,48.4,47.89,47.65,47.9,46.79Z" transform="translate(-20.21 -15.34)"/><path class="a7dc9251-39ae-436b-ae06-d78356606414" d="M50.91,44.82h6.36c0-.94,0-1.93,0-2.93H50.83C50.86,42.89,50.88,43.88,50.91,44.82Z" transform="translate(-20.21 -15.34)"/><path class="a7dc9251-39ae-436b-ae06-d78356606414" d="M51.05,49h6.16c0-.61,0-1.36,0-2.22H51C51,47.64,51,48.4,51.05,49Z" transform="translate(-20.21 -15.34)"/><path class="a7dc9251-39ae-436b-ae06-d78356606414" d="M38.58,32.08H32.23c-.16,1.58-.17,4.64-.12,7.83h6.52C38.65,36.7,38.65,33.62,38.58,32.08Z" transform="translate(-20.21 -15.34)"/><polygon class="a7dc9251-39ae-436b-ae06-d78356606414" points="39.84 56.63 39.59 56.63 20.27 56.63 20.23 61.48 39.81 61.48 39.84 56.63"/><path class="a7dc9251-39ae-436b-ae06-d78356606414" d="M38.52,49c0-.61,0-1.36,0-2.22H32.28c0,.85.06,1.61.08,2.22Z" transform="translate(-20.21 -15.34)"/><path class="a7dc9251-39ae-436b-ae06-d78356606414" d="M40.49,70H60.07v-.47s5.79-1.23,7-2H59.8v.24H33.54c1.65,1.16,7,1.74,7,1.74Z" transform="translate(-20.21 -15.34)"/><path class="a7dc9251-39ae-436b-ae06-d78356606414" d="M20.21,15.34V76.82H37.44l0-4.71L36.73,72H26.49V70h5a3.29,3.29,0,0,1-1.25-2.21H26.49v-2h3.45c-.16-1.47-.27-3.51-.35-6.41h-3.1v-2h3.05c0-.7,0-1.43-.05-2.22h-3v-2h3c0-.7,0-1.44,0-2.21H26.49V49h2.87c0-.77-.06-1.5-.09-2.22H26.49v-2h2.72c0-1-.06-2-.08-2.93H26.49v-2h2.6c-.05-4,0-6.4.16-7.83H26.49v-2h3.1l.12-.29a4.87,4.87,0,0,1,4.1-2.64H26.49v-2H59.8v2H55a7.81,7.81,0,0,1,3.75,1.27,6.31,6.31,0,0,1,4.29-1.34h0V25.2H73.51v2h-9.1c1.69.19,4.15.82,4.92,2.84l0,.09h4.15v2h-3.9c0,.69,0,1.63.06,2.93h3.84v2H69.68c0,.86,0,1.83,0,2.93h3.84v2H69.66c0,.75,0,1.55,0,2.41A4.72,4.72,0,0,1,71.42,44a4.84,4.84,0,0,1,1.59.28c1.91.68,3.91,3.11,4.66,5.66a7.37,7.37,0,0,1-1.19,6.77,53.1,53.1,0,0,0-3.07,5.78v1h-.5c-.39.8-.73,1.49-1,2.1h1.55v2h-2.6a6.78,6.78,0,0,1-2,2.45h4.68v2H63.05l0,4.86H79.79V15.34Zm53.3,6.93h-47v-2h47Z" transform="translate(-20.21 -15.34)"/><path class="a7dc9251-39ae-436b-ae06-d78356606414" d="M49.43,28.44a5.81,5.81,0,0,1,3.13-1.27H45.69A7.81,7.81,0,0,1,49.43,28.44Z" transform="translate(-20.21 -15.34)"/><path class="a7dc9251-39ae-436b-ae06-d78356606414" d="M50.8,39.91h6.52c0-3.21,0-6.29,0-7.83H50.92C50.76,33.66,50.75,36.72,50.8,39.91Z" transform="translate(-20.21 -15.34)"/><path class="a7dc9251-39ae-436b-ae06-d78356606414" d="M40.09,28.44a5.78,5.78,0,0,1,3.12-1.27H36.34A7.81,7.81,0,0,1,40.09,28.44Z" transform="translate(-20.21 -15.34)"/><path class="a7dc9251-39ae-436b-ae06-d78356606414" d="M38.58,44.82c0-.94,0-1.93,0-2.93H32.14c0,1,0,2,.08,2.93Z" transform="translate(-20.21 -15.34)"/></svg>