<?xml version="1.0" encoding="utf-8"?>
<!-- Generator: Adobe Illustrator 25.0.0, SVG Export Plug-In . SVG Version: 6.00 Build 0)  -->
<svg version="1.1" id="Layer_1" xmlns="http://www.w3.org/2000/svg" xmlns:xlink="http://www.w3.org/1999/xlink" x="0px" y="0px"
	 viewBox="0 0 100 100" style="enable-background:new 0 0 100 100;" xml:space="preserve">
<style type="text/css">
	.st0{fill:#B8726C;}
	.st1{fill:#FFFFFF;}
</style>
<path class="st0" d="M76.72,35.56"/>
<path class="st1" d="M91.35,41.06c-0.61-1.58-17.89-16.68-20.88-17.63c-2.99-0.95-66.55-2.17-68.19,0c-1.64,2.17-1.72,48.48,0,50.41
	s65.06,1.44,68.19,0c3.13-1.44,19.79-15.7,20.88-17.63C92.44,54.28,91.96,42.64,91.35,41.06z M72.41,58.01
	c-5.16,0-9.35-4.19-9.35-9.35c0-5.16,4.19-9.35,9.35-9.35c5.16,0,9.35,4.19,9.35,9.35C81.76,53.82,77.57,58.01,72.41,58.01z"/>
</svg>
